<?xml version="1.0" standalone="no"?>
<!DOCTYPE svg PUBLIC "-//W3C//DTD SVG 20010904//EN"
 "http://www.w3.org/TR/2001/REC-SVG-20010904/DTD/svg10.dtd">
<svg version="1.0" xmlns="http://www.w3.org/2000/svg"
 width="500.000000pt" height="500.000000pt" viewBox="0 0 500.000000 500.000000"
 preserveAspectRatio="xMidYMid meet">
<metadata>
Created by potrace 1.14, written by Peter Selinger 2001-2017
</metadata>
<g transform="translate(0.000000,500.000000) scale(0.100000,-0.100000)"
fill="#000000" stroke="none">
<path d="M0 2500 l0 -2500 2500 0 2500 0 0 2500 0 2500 -2500 0 -2500 0 0
-2500z m2529 1463 c-8 -10 -16 -20 -19 -23 -3 -3 -23 -29 -44 -59 -61 -83 -88
-168 -92 -286 l-3 -100 9 90 c5 50 14 108 20 130 7 22 14 46 16 54 3 8 6 12 9
9 2 -2 0 -21 -6 -42 -12 -43 -6 -109 17 -178 15 -45 46 -83 145 -174 42 -38
69 -92 69 -137 0 -9 4 -18 8 -21 5 -3 6 15 2 40 -4 25 -5 56 -2 69 6 35 -16
123 -40 159 l-22 31 23 -20 c107 -92 211 -214 211 -247 0 -8 5 -19 12 -26 26
-26 16 -220 -13 -258 -5 -6 -26 -16 -47 -22 -21 -6 -51 -26 -67 -44 -17 -18
-21 -25 -10 -16 27 21 113 64 149 72 106 26 183 175 136 266 -11 22 -20 42
-20 45 0 8 60 -24 99 -53 61 -46 89 -152 62 -239 -1 -2 -2 -6 -2 -10 -1 -5
-18 -37 -37 -73 -19 -36 -44 -81 -54 -100 -10 -19 -18 -52 -18 -75 l-1 -40
-19 35 c-25 47 -34 108 -20 145 9 23 9 27 -1 18 -17 -17 -23 -96 -9 -137 16
-51 63 -83 132 -91 42 -5 65 -3 87 8 l29 15 10 -57 c21 -116 -9 -237 -81 -333
-71 -94 -221 -196 -346 -234 -55 -16 -61 -17 -61 -5 0 5 13 12 28 16 52 11
168 96 221 161 32 40 69 122 71 159 5 84 -5 102 -39 71 -34 -31 -121 -66 -184
-75 -142 -20 -273 47 -305 157 -31 105 -18 283 30 393 11 27 18 53 14 57 -4 3
-41 -11 -81 -32 -88 -44 -165 -123 -204 -206 -25 -52 -26 -62 -24 -203 2 -115
-1 -156 -13 -185 -61 -147 -234 -163 -427 -39 -31 20 -61 37 -66 37 -11 0 -56
93 -72 150 -7 25 -14 50 -15 55 -14 44 -23 113 -24 180 -1 65 -3 75 -12 55 -5
-14 -7 -50 -4 -80 4 -45 1 -62 -17 -94 -12 -22 -26 -40 -32 -40 -6 -1 -11 35
-13 82 -2 70 2 95 26 167 32 91 96 195 125 203 9 2 17 9 17 16 0 6 19 26 41
44 47 40 129 87 129 75 -1 -4 -6 -33 -13 -63 -15 -65 -14 -184 3 -266 22 -105
45 -124 52 -45 5 55 63 183 99 222 14 14 35 39 48 55 12 16 39 48 59 72 54 64
73 121 73 227 0 50 -3 101 -6 115 -33 157 -5 283 81 361 35 31 106 75 117 71
4 -1 7 3 7 8 0 6 7 10 15 10 8 0 29 9 47 20 41 25 55 26 37 3z m191 -1923 c-8
-5 -24 -9 -35 -9 -16 1 -16 2 5 9 35 11 48 11 30 0z m230 -333 c24 -12 57 -40
74 -61 25 -31 31 -47 30 -84 -2 -122 -111 -215 -229 -197 -92 13 -175 100
-175 182 0 138 171 228 300 160z m-1570 -18 c54 -30 73 -68 46 -98 -20 -22
-130 -65 -193 -76 l-43 -7 0 -57 c0 -67 -19 -103 -43 -83 -23 20 -21 328 2
343 9 5 54 8 101 6 68 -2 95 -8 130 -28z m2460 22 c16 -4 25 -14 25 -26 0 -19
-7 -20 -124 -17 l-124 3 7 -32 c3 -17 6 -37 6 -45 0 -9 14 -11 53 -8 69 7 142
-7 142 -26 0 -15 -20 -20 -147 -35 l-48 -6 0 -44 0 -44 108 -3 c106 -3 107 -3
107 -28 0 -20 -7 -26 -40 -33 -60 -13 -209 -5 -229 12 -16 13 -17 31 -13 167
2 83 8 157 11 163 8 12 223 14 266 2z m-1378 -11 c50 -14 95 -54 103 -91 9
-40 -11 -64 -29 -34 -42 72 -118 101 -188 72 -49 -21 -72 -58 -72 -119 0 -66
32 -99 101 -105 60 -6 101 12 139 62 29 38 44 38 44 -2 0 -35 -65 -98 -117
-113 -158 -48 -284 114 -202 260 40 72 121 97 221 70z m901 -6 c153 -52 154
-251 1 -310 -52 -20 -197 -25 -214 -8 -17 17 -26 284 -11 312 11 20 19 22 95
22 49 0 101 -6 129 -16z m-1522 -25 c9 -30 11 -292 3 -313 -14 -37 -45 -14
-143 108 -56 69 -105 127 -110 130 -11 7 -21 -67 -21 -151 0 -69 -12 -103 -35
-103 -8 0 -17 10 -20 23 -9 36 29 320 43 325 14 4 47 -28 152 -152 l75 -88 7
112 c3 61 9 118 12 126 8 22 29 12 37 -17z m292 -143 c11 -27 -22 -39 -104
-40 -61 -1 -82 3 -89 14 -17 27 18 40 106 40 62 0 83 -4 87 -14z"/>
<path d="M2381 3464 c0 -11 3 -14 6 -6 3 7 2 16 -1 19 -3 4 -6 -2 -5 -13z"/>
<path d="M1651 2844 c0 -11 3 -14 6 -6 3 7 2 16 -1 19 -3 4 -6 -2 -5 -13z"/>
<path d="M2915 2780 c3 -5 8 -10 11 -10 2 0 4 5 4 10 0 6 -5 10 -11 10 -5 0
-7 -4 -4 -10z"/>
<path d="M1580 2710 c0 -5 5 -10 10 -10 6 0 10 5 10 10 0 6 -4 10 -10 10 -5 0
-10 -4 -10 -10z"/>
<path d="M1951 2704 c-2 -35 42 -144 71 -175 18 -20 28 -28 22 -20 -19 27 -56
103 -75 156 -10 27 -18 45 -18 39z"/>
<path d="M2787 1660 c-31 -25 -67 -96 -67 -134 0 -38 54 -91 102 -100 81 -15
169 37 182 107 12 63 -18 105 -93 132 -59 20 -93 19 -124 -5z"/>
<path d="M1190 1622 l0 -50 43 5 c71 7 135 24 146 37 8 10 5 18 -10 32 -16 14
-40 20 -100 23 l-79 3 0 -50z"/>
<path d="M3197 1663 c-4 -3 -7 -60 -7 -126 l0 -120 65 6 c36 4 81 14 101 23
74 35 82 119 17 173 -46 38 -155 66 -176 44z"/>
</g>
</svg>
